<?xml version="1.0" standalone="no"?>
<!DOCTYPE svg PUBLIC "-//W3C//DTD SVG 20010904//EN"
 "http://www.w3.org/TR/2001/REC-SVG-20010904/DTD/svg10.dtd">
<svg version="1.0" xmlns="http://www.w3.org/2000/svg"
 width="3333.000000pt" height="3333.000000pt" viewBox="0 0 3333.000000 3333.000000"
 preserveAspectRatio="xMidYMid meet">

<g transform="translate(0.000000,3333.000000) scale(0.100000,-0.100000)"
fill="#000000" stroke="none">
<path d="M16475 13543 c-1454 -32 -2746 -462 -3735 -1242 -349 -275 -412 -363
-414 -581 -1 -124 23 -214 83 -303 56 -86 3918 -4015 3985 -4056 94 -56 165
-73 291 -68 121 4 185 23 268 78 62 41 3921 3973 3968 4043 62 92 84 173 83
301 -2 190 -48 278 -234 438 -1096 945 -2589 1428 -4295 1390z"/>
</g>
</svg>
