<?xml version="1.0" encoding="UTF-8"?>
<svg version="1.1" xmlns="http://www.w3.org/2000/svg" width="3333" height="3333">
<path d="M0 0 C3.42118948 0.00543422 6.84237204 0.00780562 10.26356506 0.00987244 C41.95262059 0.03971328 73.51314114 0.33090169 105.10249329 3.0900116 C107.8075284 3.32308479 110.51341528 3.54138201 113.21998596 3.75584412 C206.11441008 11.15928866 298.58316516 28.4474678 387.4566803 56.59507751 C389.74710691 57.31793962 392.03995802 58.03252649 394.33375549 58.74461365 C465.14845982 80.75576929 535.38682542 109.56317394 600.13795471 145.87303162 C602.88627713 147.39507654 605.6543645 148.87441193 608.43043518 150.34519958 C622.54536675 157.83787868 636.21003596 165.92114288 649.81216431 174.29405212 C654.20287528 176.99388382 658.62371043 179.63965211 663.05641174 182.26976013 C671.58336697 187.33087236 679.90542826 192.61538915 688.09889221 198.19920349 C690.61320652 199.9059573 693.15012344 201.57834983 695.68434143 203.25535583 C709.25449042 212.31420029 722.56899777 221.69833151 735.74684143 231.31785583 C736.54589905 231.90002869 737.34495667 232.48220154 738.16822815 233.08201599 C753.4608841 244.23526059 768.28183921 255.86845261 782.93824768 267.84129333 C784.53919623 269.14833124 786.14282119 270.45208939 787.74684143 271.75535583 C794.25047797 277.04901348 800.6674591 282.43920113 807.05104065 287.87644958 C808.74918989 289.31985199 810.45274336 290.75667006 812.15699768 292.19285583 C815.71603507 295.20156292 819.2415221 298.2467665 822.74684143 301.31785583 C823.40071838 301.88971619 824.05459534 302.46157654 824.72828674 303.05076599 C836.84469912 313.7336462 847.35975391 325.32603371 848.74684143 342.31785583 C849.88118981 360.97788669 843.91056467 374.55858247 831.74684143 388.31785583 C828.95734733 391.42226077 826.13455693 394.49509049 823.29762268 397.55613708 C819.09585734 402.10536848 815.0524163 406.78152667 811.03981018 411.49754333 C805.21235083 418.33905291 799.29027412 425.06037691 793.19215393 431.66160583 C789.03179616 436.18084431 785.01998608 440.81964192 781.03981018 445.49754333 C775.21235083 452.33905291 769.29027412 459.06037691 763.19215393 465.66160583 C759.03179616 470.18084431 755.01998608 474.81964192 751.03981018 479.49754333 C745.21235083 486.33905291 739.29027412 493.06037691 733.19215393 499.66160583 C729.03179616 504.18084431 725.01998608 508.81964192 721.03981018 513.49754333 C715.21235083 520.33905291 709.29027412 527.06037691 703.19215393 533.66160583 C699.03179616 538.18084431 695.01998608 542.81964192 691.03981018 547.49754333 C685.21235083 554.33905291 679.29027412 561.06037691 673.19215393 567.66160583 C669.03179616 572.18084431 665.01998608 576.81964192 661.03981018 581.49754333 C655.22014568 588.32990166 649.30754235 595.04364609 643.21559143 601.63426208 C641.09209751 603.94255374 638.999927 606.27033373 636.93434143 608.63035583 C636.38648987 609.25426208 635.83863831 609.87816833 635.27418518 610.52098083 C634.27747086 611.69358592 633.3093139 612.89125373 632.37574768 614.11473083 C625.18089872 623.32739863 613.25259266 629.54135456 601.74684143 631.31785583 C584.48303426 632.42520835 570.14411051 629.38460367 556.78590393 617.73582458 C554.73714578 615.87133579 552.71993735 613.97559347 550.70777893 612.07176208 C547.17491223 608.74461534 543.41777066 605.72158177 539.63746643 602.68113708 C536.99967343 600.52456308 534.4240482 598.31568554 531.85621643 596.07737732 C524.27394817 589.47811428 516.41059428 583.31101391 508.36598206 577.28660583 C506.32643859 575.75352618 504.29566142 574.21069121 502.26832581 572.66160583 C492.42023359 565.16627518 482.31508418 558.14816288 471.99684143 551.31785583 C471.20836823 550.7942749 470.41989502 550.27069397 469.60752869 549.73124695 C457.84421126 541.92511289 446.02486877 534.29566543 433.74684143 527.31785583 C432.79905823 526.77548279 431.85127502 526.23310974 430.87477112 525.67430115 C423.53739559 521.48451283 416.1589008 517.373955 408.74684143 513.31785583 C407.81565491 512.80754822 406.88446838 512.2972406 405.92506409 511.77146912 C348.67566255 480.61456352 286.02033189 458.51039132 222.74684143 443.31785583 C222.07749573 443.15605835 221.40815002 442.99426086 220.71852112 442.82756042 C172.85998226 431.27887706 124.19851895 424.19329115 75.12184143 420.56785583 C74.31990356 420.50850861 73.5179657 420.44916138 72.69172668 420.38801575 C50.25229687 418.76114112 27.80480499 418.10791647 5.30934143 418.13035583 C3.60079987 418.13126221 3.60079987 418.13126221 1.85774231 418.13218689 C-83.18269751 418.25321568 -168.5900505 428.92985237 -295.25315857 467.31785583 C-295.92218201 467.55053162 -296.59120544 467.7832074 -297.28050232 468.02293396 C-317.0065807 474.89009931 -336.23689474 482.7012039 -355.25315857 491.31785583 C-355.91996643 491.61967773 -356.58677429 491.92149963 -357.27378845 492.23246765 C-374.146767 499.88300153 -390.73843562 507.84709614 -406.87132263 516.97850037 C-409.1301794 518.24870211 -411.40205152 519.48991878 -413.68284607 520.72019958 C-435.00889919 532.26639716 -455.42806432 545.36943094 -475.25315857 559.31785583 C-476.04657654 559.87569763 -476.83999451 560.43353943 -477.65745544 561.00828552 C-499.60243185 576.5058904 -521.34422657 593.04355822 -540.79417419 611.62083435 C-554.27235439 624.41112215 -568.3346977 631.99477377 -587.29466248 631.79124451 C-601.23296907 631.27111659 -614.19613706 624.92182919 -623.74925232 614.72019958 C-625.61584572 612.61188906 -627.43620451 610.46915646 -629.25315857 608.31785583 C-631.16631503 606.06485296 -633.0837094 603.81549939 -635.00315857 601.56785583 C-635.51596375 600.96707214 -636.02876892 600.36628845 -636.55711365 599.74729919 C-640.86654043 594.72086543 -645.31571104 589.83685218 -649.80784607 584.97410583 C-653.96820384 580.45486736 -657.98001392 575.81606975 -661.96018982 571.13816833 C-667.78764917 564.29665876 -673.70972588 557.57533476 -679.80784607 550.97410583 C-683.96820384 546.45486736 -687.98001392 541.81606975 -691.96018982 537.13816833 C-697.78764917 530.29665876 -703.70972588 523.57533476 -709.80784607 516.97410583 C-713.96820384 512.45486736 -717.98001392 507.81606975 -721.96018982 503.13816833 C-727.78764917 496.29665876 -733.70972588 489.57533476 -739.80784607 482.97410583 C-743.96820384 478.45486736 -747.98001392 473.81606975 -751.96018982 469.13816833 C-757.78764917 462.29665876 -763.70972588 455.57533476 -769.80784607 448.97410583 C-773.96820384 444.45486736 -777.98001392 439.81606975 -781.96018982 435.13816833 C-787.78764917 428.29665876 -793.70972588 421.57533476 -799.80784607 414.97410583 C-803.99051352 410.4306332 -808.0199817 405.76309949 -812.03050232 401.06785583 C-812.53428406 400.47875427 -813.0380658 399.88965271 -813.55711365 399.28269958 C-814.60732515 398.05280154 -815.6553309 396.82101668 -816.70115662 395.58738708 C-819.68932269 392.07773014 -822.78175302 388.74228851 -826.00315857 385.44285583 C-833.88086336 376.73289808 -839.42529227 365.0735573 -840.25315857 353.31785583 C-840.32147888 352.5250824 -840.38979919 351.73230896 -840.46018982 350.91551208 C-841.08629116 336.60793707 -836.31849097 323.89067573 -827.00315857 313.19285583 C-819.90101059 305.6750303 -812.05823994 299.11700773 -804.02659607 292.62644958 C-801.2463056 290.31215146 -798.59179002 287.9035101 -795.94065857 285.44285583 C-791.33044499 281.19988545 -786.53388899 277.31908921 -781.58152771 273.4919281 C-777.58276486 270.39276466 -773.70860662 267.18442848 -769.87815857 263.88035583 C-763.21706274 258.16061303 -756.20391323 252.95683269 -749.15061951 247.73484802 C-746.36372087 245.6536386 -743.62300237 243.51677078 -740.87815857 241.38035583 C-721.66403114 226.50925019 -701.57605256 212.62495654 -681.25315857 199.31785583 C-680.60878845 198.89472107 -679.96441833 198.4715863 -679.30052185 198.03562927 C-651.97674687 180.12035628 -623.92943515 163.27075736 -595.11741638 147.85740662 C-592.03709692 146.20172178 -588.96912002 144.52446405 -585.90159607 142.84519958 C-534.43068951 114.79017786 -480.41440224 91.52782264 -425.16752625 71.99504089 C-423.18339545 71.29317795 -421.20045707 70.5880082 -419.21751404 69.88279724 C-335.76888185 40.27790256 -249.11625232 21.0739967 -109.06565857 4.13035583 C-108.14834961 4.05145111 -107.23104065 3.97254639 -106.28593445 3.89125061 C-99.27953773 3.29607035 -92.26902362 2.78760097 -85.25315857 2.31785583 C-83.95450867 2.22958527 -82.65585876 2.1413147 -81.31785583 2.05036926 C-54.21674477 0.24488674 -27.15445587 -0.04485998 0 0 Z " fill="#FF7F00" transform="translate(1662.253158569336,1353.682144165039)"/>
<path d="M0 0 C1.08410156 0.35143066 2.16820312 0.70286133 3.28515625 1.06494141 C68.7505623 22.41278873 130.43951902 56.49623508 183 101 C183.58475098 101.48533203 184.16950195 101.97066406 184.77197266 102.47070312 C198.36936562 113.76583752 209.63335701 124.49715483 212 143 C212.93842562 157.90653005 210.21531654 171.89585715 200.76171875 183.82421875 C197.92629132 186.97804016 195.0006615 190.00434099 192 193 C191.32340332 193.67820801 190.64680664 194.35641602 189.94970703 195.05517578 C184.0208369 200.99195634 184.0208369 200.99195634 181.10229492 203.86206055 C180.41369385 204.54179932 179.72509277 205.22153809 179.015625 205.921875 C178.41008789 206.51581055 177.80455078 207.10974609 177.18066406 207.72167969 C175.35340434 209.63076922 173.6374285 211.57586083 171.91894531 213.58105469 C167.75073504 218.37267798 163.27814868 222.83580043 158.76963806 227.30552673 C157.24406023 228.81812332 155.72181914 230.33401202 154.20031738 231.85070801 C150.42383018 235.61395801 146.64186489 239.37168668 142.86004639 243.12957764 C139.65240132 246.31735668 136.44690705 249.50727042 133.24412537 252.69993591 C131.75796311 254.17970556 130.26878004 255.65638565 128.77941895 257.13293457 C124.90232038 260.99608001 121.06400081 264.84396898 117.5 269 C113.49419884 273.67122056 109.13767918 277.97506155 104.76963806 282.30552673 C103.24406023 283.81812332 101.72181914 285.33401202 100.20031738 286.85070801 C96.42383018 290.61395801 92.64186489 294.37168668 88.86004639 298.12957764 C85.65240132 301.31735668 82.44690705 304.50727042 79.24412537 307.69993591 C77.75796311 309.17970556 76.26878004 310.65638565 74.77941895 312.13293457 C70.28685277 316.60933263 65.95759276 321.13183523 61.8302002 325.94494629 C58.37064571 329.82953241 54.64812077 333.45954864 50.95483398 337.12033081 C49.46285757 338.59931909 47.97422447 340.08160502 46.48632812 341.56469727 C42.79331846 345.24447387 39.09482888 348.91872627 35.39648438 352.59313965 C32.25929696 355.71045629 29.12426398 358.82991088 25.99194336 361.95211792 C24.53902092 363.39865069 23.08307719 364.84209167 21.62695312 366.28540039 C17.80490227 370.0933895 14.02683794 373.88949019 10.51367188 377.98632812 C6.50249077 382.6614248 2.14227075 386.97050947 -2.23036194 391.30552673 C-3.75593977 392.81812332 -5.27818086 394.33401202 -6.79968262 395.85070801 C-10.57616982 399.61395801 -14.35813511 403.37168668 -18.13995361 407.12957764 C-21.34759868 410.31735668 -24.55309295 413.50727042 -27.75587463 416.69993591 C-29.24203689 418.17970556 -30.73121996 419.65638565 -32.22058105 421.13293457 C-36.09767962 424.99608001 -39.93599919 428.84396898 -43.5 433 C-47.50580116 437.67122056 -51.86232082 441.97506155 -56.23036194 446.30552673 C-57.75593977 447.81812332 -59.27818086 449.33401202 -60.79968262 450.85070801 C-64.57616982 454.61395801 -68.35813511 458.37168668 -72.13995361 462.12957764 C-75.34759868 465.31735668 -78.55309295 468.50727042 -81.75587463 471.69993591 C-83.24203689 473.17970556 -84.73121996 474.65638565 -86.22058105 476.13293457 C-90.71314723 480.60933263 -95.04240724 485.13183523 -99.1697998 489.94494629 C-102.62935429 493.82953241 -106.35187923 497.45954864 -110.04516602 501.12033081 C-111.53714243 502.59931909 -113.02577553 504.08160502 -114.51367188 505.56469727 C-118.20668154 509.24447387 -121.90517112 512.91872627 -125.60351562 516.59313965 C-128.74070304 519.71045629 -131.87573602 522.82991088 -135.00805664 525.95211792 C-136.46097908 527.39865069 -137.91692281 528.84209167 -139.37304688 530.28540039 C-143.85528536 534.75114823 -148.18377826 539.2652893 -152.30307007 544.06707764 C-155.46076272 547.66391132 -158.84094534 551.04468972 -162.20703125 554.4453125 C-162.9724675 555.2188205 -163.73790375 555.99232849 -164.52653503 556.78927612 C-166.13609249 558.41257192 -167.74714244 560.03438911 -169.35961914 561.65478516 C-170.99400283 563.30071868 -172.62390257 564.95111692 -174.24926758 566.60595703 C-176.62115614 569.02073559 -179.00622391 571.42178393 -181.39453125 573.8203125 C-182.10841507 574.55170441 -182.82229889 575.28309631 -183.55781555 576.03665161 C-194.59135941 587.02391002 -206.9771391 592.3483642 -222.5 592.5 C-241.57292153 592.29704305 -253.91570298 583.6492169 -266.93359375 570.46679688 C-268.20576192 569.1653966 -269.47789712 567.86396409 -270.75 566.5625 C-272.03687868 565.26409945 -273.32463446 563.96656761 -274.61328125 562.66992188 C-275.86275866 561.40702074 -277.11148277 560.14337376 -278.359375 558.87890625 C-278.923078 558.30781631 -279.48678101 557.73672638 -280.06756592 557.14833069 C-282.89301617 554.25628584 -285.61341081 551.31365344 -288.24511719 548.24389648 C-292.35356903 543.50719123 -296.77921577 539.1073286 -301.23036194 534.69447327 C-302.75593977 533.18187668 -304.27818086 531.66598798 -305.79968262 530.14929199 C-309.03028953 526.93000888 -312.26483223 523.71469888 -315.5 520.5 C-319.25451127 516.7692435 -323.00730613 513.03679249 -326.75587463 509.30006409 C-328.24203689 507.82029444 -329.73121996 506.34361435 -331.22058105 504.86706543 C-335.70879577 500.39500316 -340.03297938 495.87682713 -344.15637207 491.06848145 C-347.67961143 487.11553892 -351.47112697 483.42136954 -355.23036194 479.69447327 C-356.75593977 478.18187668 -358.27818086 476.66598798 -359.79968262 475.14929199 C-363.03028953 471.93000888 -366.26483223 468.71469888 -369.5 465.5 C-373.25451127 461.7692435 -377.00730613 458.03679249 -380.75587463 454.30006409 C-382.24203689 452.82029444 -383.73121996 451.34361435 -385.22058105 449.86706543 C-389.71314723 445.39066737 -394.04240724 440.86816477 -398.1697998 436.05505371 C-401.62935429 432.17046759 -405.35187923 428.54045136 -409.04516602 424.87966919 C-410.53714243 423.40068091 -412.02577553 421.91839498 -413.51367188 420.43530273 C-416.67294765 417.28734751 -419.83616023 414.1433673 -423 411 C-426.67190789 407.35185217 -430.34209557 403.70200656 -434.00805664 400.04788208 C-435.46097908 398.60134931 -436.91692281 397.15790833 -438.37304688 395.71459961 C-442.19509773 391.9066105 -445.97316206 388.11050981 -449.48632812 384.01367188 C-453.49750923 379.3385752 -457.85772925 375.02949053 -462.23036194 370.69447327 C-463.75593977 369.18187668 -465.27818086 367.66598798 -466.79968262 366.14929199 C-470.03028953 362.93000888 -473.26483223 359.71469888 -476.5 356.5 C-480.25451127 352.7692435 -484.00730613 349.03679249 -487.75587463 345.30006409 C-489.24203689 343.82029444 -490.73121996 342.34361435 -492.22058105 340.86706543 C-496.70879577 336.39500316 -501.03297938 331.87682713 -505.15637207 327.06848145 C-508.67961143 323.11553892 -512.47112697 319.42136954 -516.23036194 315.69447327 C-517.75593977 314.18187668 -519.27818086 312.66598798 -520.79968262 311.14929199 C-524.03028953 307.93000888 -527.26483223 304.71469888 -530.5 301.5 C-534.25451127 297.7692435 -538.00730613 294.03679249 -541.75587463 290.30006409 C-543.24203689 288.82029444 -544.73121996 287.34361435 -546.22058105 285.86706543 C-550.71314723 281.39066737 -555.04240724 276.86816477 -559.1697998 272.05505371 C-562.62935429 268.17046759 -566.35187923 264.54045136 -570.04516602 260.87966919 C-571.53714243 259.40068091 -573.02577553 257.91839498 -574.51367188 256.43530273 C-577.67294765 253.28734751 -580.83616023 250.1433673 -584 247 C-587.67190789 243.35185217 -591.34209557 239.70200656 -595.00805664 236.04788208 C-596.46097908 234.60134931 -597.91692281 233.15790833 -599.37304688 231.71459961 C-603.87935068 227.22487499 -608.22275004 222.68262852 -612.36352539 217.85464478 C-615.15895256 214.68653916 -618.18971699 211.76673115 -621.21875 208.82421875 C-622.57727019 207.48808482 -623.93532899 206.15148164 -625.29296875 204.81445312 C-627.39461853 202.7497818 -629.49910774 200.68836719 -631.61181641 198.63500977 C-650.62297596 180.13113937 -650.62297596 180.13113937 -654.375 167.6875 C-654.67148438 166.74261719 -654.96796875 165.79773437 -655.2734375 164.82421875 C-658.88641447 150.78022762 -657.51698148 136.3303252 -650.62890625 123.5 C-645.39942222 115.47393338 -638.35676188 109.17940441 -630.88671875 103.29296875 C-628.3895384 101.30941683 -625.97061115 99.26144445 -623.56518555 97.16845703 C-558.56109782 40.85388781 -475.14006241 4.46468074 -392 -15 C-391.28432861 -15.16757813 -390.56865723 -15.33515625 -389.83129883 -15.5078125 C-343.6666991 -26.24920664 -296.47080646 -32.19508805 -249.09057617 -33.50268555 C-246.93460969 -33.5625803 -244.77884445 -33.62769189 -242.62304688 -33.69335938 C-160.53385311 -36.10843389 -78.10290981 -25.61499365 0 0 Z " fill="#FF7F00" transform="translate(1889,2012)"/>
</svg>
