<?xml version="1.0" encoding="UTF-8"?>
<svg version="1.1" xmlns="http://www.w3.org/2000/svg" width="3333" height="3333">
<path d="M0 0 C1.08410156 0.35143066 2.16820312 0.70286133 3.28515625 1.06494141 C68.7505623 22.41278873 130.43951902 56.49623508 183 101 C183.58475098 101.48533203 184.16950195 101.97066406 184.77197266 102.47070312 C198.36936562 113.76583752 209.63335701 124.49715483 212 143 C212.93842562 157.90653005 210.21531654 171.89585715 200.76171875 183.82421875 C197.92629132 186.97804016 195.0006615 190.00434099 192 193 C191.32340332 193.67820801 190.64680664 194.35641602 189.94970703 195.05517578 C184.0208369 200.99195634 184.0208369 200.99195634 181.10229492 203.86206055 C180.41369385 204.54179932 179.72509277 205.22153809 179.015625 205.921875 C178.41008789 206.51581055 177.80455078 207.10974609 177.18066406 207.72167969 C175.35340434 209.63076922 173.6374285 211.57586083 171.91894531 213.58105469 C167.75073504 218.37267798 163.27814868 222.83580043 158.76963806 227.30552673 C157.24406023 228.81812332 155.72181914 230.33401202 154.20031738 231.85070801 C150.42383018 235.61395801 146.64186489 239.37168668 142.86004639 243.12957764 C139.65240132 246.31735668 136.44690705 249.50727042 133.24412537 252.69993591 C131.75796311 254.17970556 130.26878004 255.65638565 128.77941895 257.13293457 C124.90232038 260.99608001 121.06400081 264.84396898 117.5 269 C113.49419884 273.67122056 109.13767918 277.97506155 104.76963806 282.30552673 C103.24406023 283.81812332 101.72181914 285.33401202 100.20031738 286.85070801 C96.42383018 290.61395801 92.64186489 294.37168668 88.86004639 298.12957764 C85.65240132 301.31735668 82.44690705 304.50727042 79.24412537 307.69993591 C77.75796311 309.17970556 76.26878004 310.65638565 74.77941895 312.13293457 C70.28685277 316.60933263 65.95759276 321.13183523 61.8302002 325.94494629 C58.37064571 329.82953241 54.64812077 333.45954864 50.95483398 337.12033081 C49.46285757 338.59931909 47.97422447 340.08160502 46.48632812 341.56469727 C42.79331846 345.24447387 39.09482888 348.91872627 35.39648438 352.59313965 C32.25929696 355.71045629 29.12426398 358.82991088 25.99194336 361.95211792 C24.53902092 363.39865069 23.08307719 364.84209167 21.62695312 366.28540039 C17.80490227 370.0933895 14.02683794 373.88949019 10.51367188 377.98632812 C6.50249077 382.6614248 2.14227075 386.97050947 -2.23036194 391.30552673 C-3.75593977 392.81812332 -5.27818086 394.33401202 -6.79968262 395.85070801 C-10.57616982 399.61395801 -14.35813511 403.37168668 -18.13995361 407.12957764 C-21.34759868 410.31735668 -24.55309295 413.50727042 -27.75587463 416.69993591 C-29.24203689 418.17970556 -30.73121996 419.65638565 -32.22058105 421.13293457 C-36.09767962 424.99608001 -39.93599919 428.84396898 -43.5 433 C-47.50580116 437.67122056 -51.86232082 441.97506155 -56.23036194 446.30552673 C-57.75593977 447.81812332 -59.27818086 449.33401202 -60.79968262 450.85070801 C-64.57616982 454.61395801 -68.35813511 458.37168668 -72.13995361 462.12957764 C-75.34759868 465.31735668 -78.55309295 468.50727042 -81.75587463 471.69993591 C-83.24203689 473.17970556 -84.73121996 474.65638565 -86.22058105 476.13293457 C-90.71314723 480.60933263 -95.04240724 485.13183523 -99.1697998 489.94494629 C-102.62935429 493.82953241 -106.35187923 497.45954864 -110.04516602 501.12033081 C-111.53714243 502.59931909 -113.02577553 504.08160502 -114.51367188 505.56469727 C-118.20668154 509.24447387 -121.90517112 512.91872627 -125.60351562 516.59313965 C-128.74070304 519.71045629 -131.87573602 522.82991088 -135.00805664 525.95211792 C-136.46097908 527.39865069 -137.91692281 528.84209167 -139.37304688 530.28540039 C-143.85528536 534.75114823 -148.18377826 539.2652893 -152.30307007 544.06707764 C-155.46076272 547.66391132 -158.84094534 551.04468972 -162.20703125 554.4453125 C-162.9724675 555.2188205 -163.73790375 555.99232849 -164.52653503 556.78927612 C-166.13609249 558.41257192 -167.74714244 560.03438911 -169.35961914 561.65478516 C-170.99400283 563.30071868 -172.62390257 564.95111692 -174.24926758 566.60595703 C-176.62115614 569.02073559 -179.00622391 571.42178393 -181.39453125 573.8203125 C-182.10841507 574.55170441 -182.82229889 575.28309631 -183.55781555 576.03665161 C-194.59135941 587.02391002 -206.9771391 592.3483642 -222.5 592.5 C-241.57292153 592.29704305 -253.91570298 583.6492169 -266.93359375 570.46679688 C-268.20576192 569.1653966 -269.47789712 567.86396409 -270.75 566.5625 C-272.03687868 565.26409945 -273.32463446 563.96656761 -274.61328125 562.66992188 C-275.86275866 561.40702074 -277.11148277 560.14337376 -278.359375 558.87890625 C-278.923078 558.30781631 -279.48678101 557.73672638 -280.06756592 557.14833069 C-282.89301617 554.25628584 -285.61341081 551.31365344 -288.24511719 548.24389648 C-292.35356903 543.50719123 -296.77921577 539.1073286 -301.23036194 534.69447327 C-302.75593977 533.18187668 -304.27818086 531.66598798 -305.79968262 530.14929199 C-309.03028953 526.93000888 -312.26483223 523.71469888 -315.5 520.5 C-319.25451127 516.7692435 -323.00730613 513.03679249 -326.75587463 509.30006409 C-328.24203689 507.82029444 -329.73121996 506.34361435 -331.22058105 504.86706543 C-335.70879577 500.39500316 -340.03297938 495.87682713 -344.15637207 491.06848145 C-347.67961143 487.11553892 -351.47112697 483.42136954 -355.23036194 479.69447327 C-356.75593977 478.18187668 -358.27818086 476.66598798 -359.79968262 475.14929199 C-363.03028953 471.93000888 -366.26483223 468.71469888 -369.5 465.5 C-373.25451127 461.7692435 -377.00730613 458.03679249 -380.75587463 454.30006409 C-382.24203689 452.82029444 -383.73121996 451.34361435 -385.22058105 449.86706543 C-389.71314723 445.39066737 -394.04240724 440.86816477 -398.1697998 436.05505371 C-401.62935429 432.17046759 -405.35187923 428.54045136 -409.04516602 424.87966919 C-410.53714243 423.40068091 -412.02577553 421.91839498 -413.51367188 420.43530273 C-416.67294765 417.28734751 -419.83616023 414.1433673 -423 411 C-426.67190789 407.35185217 -430.34209557 403.70200656 -434.00805664 400.04788208 C-435.46097908 398.60134931 -436.91692281 397.15790833 -438.37304688 395.71459961 C-442.19509773 391.9066105 -445.97316206 388.11050981 -449.48632812 384.01367188 C-453.49750923 379.3385752 -457.85772925 375.02949053 -462.23036194 370.69447327 C-463.75593977 369.18187668 -465.27818086 367.66598798 -466.79968262 366.14929199 C-470.03028953 362.93000888 -473.26483223 359.71469888 -476.5 356.5 C-480.25451127 352.7692435 -484.00730613 349.03679249 -487.75587463 345.30006409 C-489.24203689 343.82029444 -490.73121996 342.34361435 -492.22058105 340.86706543 C-496.70879577 336.39500316 -501.03297938 331.87682713 -505.15637207 327.06848145 C-508.67961143 323.11553892 -512.47112697 319.42136954 -516.23036194 315.69447327 C-517.75593977 314.18187668 -519.27818086 312.66598798 -520.79968262 311.14929199 C-524.03028953 307.93000888 -527.26483223 304.71469888 -530.5 301.5 C-534.25451127 297.7692435 -538.00730613 294.03679249 -541.75587463 290.30006409 C-543.24203689 288.82029444 -544.73121996 287.34361435 -546.22058105 285.86706543 C-550.71314723 281.39066737 -555.04240724 276.86816477 -559.1697998 272.05505371 C-562.62935429 268.17046759 -566.35187923 264.54045136 -570.04516602 260.87966919 C-571.53714243 259.40068091 -573.02577553 257.91839498 -574.51367188 256.43530273 C-577.67294765 253.28734751 -580.83616023 250.1433673 -584 247 C-587.67190789 243.35185217 -591.34209557 239.70200656 -595.00805664 236.04788208 C-596.46097908 234.60134931 -597.91692281 233.15790833 -599.37304688 231.71459961 C-603.87935068 227.22487499 -608.22275004 222.68262852 -612.36352539 217.85464478 C-615.15895256 214.68653916 -618.18971699 211.76673115 -621.21875 208.82421875 C-622.57727019 207.48808482 -623.93532899 206.15148164 -625.29296875 204.81445312 C-627.39461853 202.7497818 -629.49910774 200.68836719 -631.61181641 198.63500977 C-650.62297596 180.13113937 -650.62297596 180.13113937 -654.375 167.6875 C-654.67148438 166.74261719 -654.96796875 165.79773437 -655.2734375 164.82421875 C-658.88641447 150.78022762 -657.51698148 136.3303252 -650.62890625 123.5 C-645.39942222 115.47393338 -638.35676188 109.17940441 -630.88671875 103.29296875 C-628.3895384 101.30941683 -625.97061115 99.26144445 -623.56518555 97.16845703 C-558.56109782 40.85388781 -475.14006241 4.46468074 -392 -15 C-391.28432861 -15.16757813 -390.56865723 -15.33515625 -389.83129883 -15.5078125 C-343.6666991 -26.24920664 -296.47080646 -32.19508805 -249.09057617 -33.50268555 C-246.93460969 -33.5625803 -244.77884445 -33.62769189 -242.62304688 -33.69335938 C-160.53385311 -36.10843389 -78.10290981 -25.61499365 0 0 Z " fill="#FFFFFF" transform="translate(1889,2012)"/>
</svg>
